# xmcd CD database file
#
# Track frame offsets:
#	150
#	19882
#	39987
#	59657
#
# Disc length: 1061 seconds
#
# Revision: 0
# Processed by: cddbd v1.5PL3 Copyright (c) Steve Scherf et al.
# Submitted via: CDex 1.51
#
DISCID=2f042304
DTITLE=Hipp's - Go! Go! Girl!
DYEAR=2001
DGENRE=JPop
TTITLE0=Go! Go! Girl!
TTITLE1=SWEET LOVE
TTITLE2=Go! Go! Girl! [Instrumental]
TTITLE3=SWEET LOVE [Instrumental]
EXTD=YEAR: 2001
EXTT0=
EXTT1=
EXTT2=
EXTT3=
PLAYORDER=
